<svg xmlns="http://www.w3.org/2000/svg" width="192" height="192"><path d="M68.009 46.837c-1.88 1.88-3.057 4.327-3.489 7.25-.358 2.427-.509 18.218-.336 35.092.302 29.31.409 30.804 2.41 33.5 1.151 1.551 3.626 3.358 5.5 4.015 4.377 1.533 62.726 1.762 68.111.266 2.037-.566 4.624-2.199 5.75-3.629 1.973-2.509 2.045-3.852 2.045-38.043V49.846l-2.923-2.923L142.154 44H70.846l-2.837 2.837M80.195 64.75l.305 4.75h52l.305-4.75.305-4.75H79.89l.305 4.75M44 103.022v39.132l2.935 2.935 2.935 2.935 38.815-.262 38.815-.262v-9L91 138l-36.5-.5L54 101l-.5-36.5-4.75-.305L44 63.89v39.132m36.408-21.644c-.297.776-.399 3.146-.225 5.267L80.5 90.5h52v-10l-25.775-.267c-21.45-.222-25.866-.03-26.317 1.145m.004 20.991c-.3.781-.403 3.155-.229 5.276l.317 3.855h31v-10l-15.271-.276c-12.459-.225-15.372-.015-15.817 1.145m84.46 47.381c-1.243 1.586-1.208 1.621.378.378 1.666-1.307 2.195-2.128 1.372-2.128-.207 0-.995.787-1.75 1.75m-7.419 8.5l-3.953 4.25 4.25-3.953c2.338-2.174 4.25-4.087 4.25-4.25 0-.757-.871.001-4.547 3.953M35 159.5c1.292 1.375 2.574 2.5 2.849 2.5.275 0-.557-1.125-1.849-2.5-1.292-1.375-2.574-2.5-2.849-2.5-.275 0 .557 1.125 1.849 2.5m114.872 5.25c-1.243 1.586-1.208 1.621.378.378 1.666-1.307 2.195-2.128 1.372-2.128-.207 0-.995.787-1.75 1.75M135 174c-.901.582-1.025.975-.309.985.655.008 1.469-.435 1.809-.985.767-1.242.421-1.242-1.5 0m-45.25 9.706c1.237.238 3.263.238 4.5 0 1.237-.239.225-.434-2.25-.434s-3.487.195-2.25.434m9.012.001c1.244.239 3.044.23 4-.02s-.062-.446-2.262-.435c-2.2.011-2.982.216-1.738.455" fill="undefined" fill-rule="evenodd"/></svg>